<?xml version="1.0" encoding="UTF-8"?><svg version="1.1" viewBox="0 0 24 24" xmlns="http://www.w3.org/2000/svg" xmlns:xlink="http://www.w3.org/1999/xlink"><!--Generated by IJSVG (https://github.com/curthard89/IJSVG)--><defs><path id="path-2" d="M0,0h0.1"></path><path id="path-1" d="M0.1,0h-0.1"></path></defs><g fill="none"><g fill="none" stroke="#000000" stroke-linecap="round" stroke-linejoin="round" stroke-width="1"><path d="M7,0h-7" transform="translate(8, 23.5)"></path><path d="M10,6.5c0,-6.5 -10,-6.3 -10,0v9.4c0,6.3 10,6.4 10,0v-9.4Z" transform="translate(6.5, -1.2)"></path><path d="M0,0h10" transform="translate(6.5, 14.5)"></path><path d="M0,2v-2" transform="translate(11.5, 21.5)"></path><use transform="translate(8.5, 11)" xlink:href="#path-1"></use><use transform="translate(11.4, 11)" xlink:href="#path-2"></use><use transform="translate(14.4, 11)" xlink:href="#path-2"></use><use transform="translate(10, 12.5)" xlink:href="#path-1"></use><use transform="translate(13, 12.5)" xlink:href="#path-1"></use><use transform="translate(10, 9.5)" xlink:href="#path-1"></use><use transform="translate(13, 9.5)" xlink:href="#path-1"></use><use transform="translate(8.5, 8)" xlink:href="#path-1"></use><use transform="translate(11.4, 8)" xlink:href="#path-2"></use><use transform="translate(14.4, 8)" xlink:href="#path-2"></use><use transform="translate(8.5, 5)" xlink:href="#path-1"></use><use transform="translate(11.4, 5)" xlink:href="#path-2"></use><use transform="translate(14.4, 5)" xlink:href="#path-2"></use><use transform="translate(10, 3.5)" xlink:href="#path-1"></use><use transform="translate(13, 3.5)" xlink:href="#path-1"></use><use transform="translate(10, 6.5)" xlink:href="#path-1"></use><use transform="translate(13, 6.5)" xlink:href="#path-1"></use></g><path d="M0,0h24v24h-24Z"></path></g></svg>