<?xml version="1.0" encoding="UTF-8"?><svg version="1.1" viewBox="0 0 20 20" xmlns="http://www.w3.org/2000/svg" xmlns:xlink="http://www.w3.org/1999/xlink"><!--Generated by IJSVG (https://github.com/curthard89/IJSVG)--><g transform="translate(-610, -131)"><g transform="translate(50, 130)"><g fill="#231F1F" fill-rule="evenodd" stroke="none" stroke-width="1"><path d="M19.781,10.6454v-1.50988c0,-0.490431 -0.397832,-0.888263 -0.88912,-0.888263h-0.244358c-0.569312,0 -1.06574,-0.367823 -1.25009,-0.906268c-0.110604,-0.324953 -0.242643,-0.640475 -0.393545,-0.944851c-0.254647,-0.513581 -0.166335,-1.12833 0.239214,-1.53388l0.174909,-0.174909c0.346388,-0.347246 0.346388,-0.909698 0,-1.25694l-1.06746,-1.0666c-0.347246,-0.347246 -0.909698,-0.347246 -1.25694,0l-0.18777,0.186912c-0.402976,0.403834 -1.01516,0.493861 -1.52788,0.242643c-0.300946,-0.147472 -0.612181,-0.276939 -0.932847,-0.385829c-0.541018,-0.183483 -0.911413,-0.680773 -0.911413,-1.2518v-0.26665c0,-0.491288 -0.397832,-0.88912 -0.888263,-0.88912h-1.50988c-0.490431,0 -0.888263,0.397832 -0.888263,0.88912v0.29323c0,0.567597 -0.366108,1.06317 -0.902839,1.24923c-0.312949,0.108032 -0.617325,0.235784 -0.911412,0.381542c-0.514438,0.254647 -1.12919,0.166335 -1.53474,-0.239214l-0.21092,-0.210062c-0.347246,-0.347246 -0.909698,-0.347246 -1.25694,0l-1.0666,1.0666c-0.347246,0.347246 -0.347246,0.909698 0,1.25694l0.222923,0.223781c0.403834,0.403834 0.493003,1.01602 0.241786,1.52874c-0.141471,0.290657 -0.266651,0.590746 -0.372968,0.899409c-0.18434,0.539303 -0.680773,0.907983 -1.25094,0.907983h-0.315522c-0.490431,0 -0.88912,0.397832 -0.88912,0.888263v1.50988c0,0.490431 0.398689,0.888263 0.88912,0.888263h0.315522c0.570169,0 1.0666,0.368681 1.25094,0.907983c0.106317,0.308663 0.231497,0.608752 0.372968,0.899409c0.251217,0.512723 0.162048,1.1249 -0.241786,1.52874l-0.222923,0.223781c-0.347246,0.347246 -0.347246,0.909698 0,1.25694l1.0666,1.06746c0.347246,0.346388 0.909698,0.346388 1.25694,0l0.21092,-0.21092c0.405548,-0.405549 1.0203,-0.493861 1.53474,-0.239214c0.294087,0.145758 0.598463,0.27351 0.911412,0.381542c0.536731,0.186055 0.902839,0.68163 0.902839,1.24923v0.29323c0,0.491288 0.397832,0.88912 0.888263,0.88912h1.50988c0.490431,0 0.888263,-0.397832 0.888263,-0.88912v-0.26665c0,-0.571026 0.370395,-1.06832 0.911413,-1.2518c0.320666,-0.108889 0.631901,-0.238356 0.932847,-0.385829c0.512723,-0.251217 1.12491,-0.161191 1.52788,0.242643l0.18777,0.18777c0.347246,0.346388 0.909698,0.346388 1.25694,0l1.06746,-1.06746c0.346388,-0.347246 0.346388,-0.909698 0,-1.25694l-0.174909,-0.174909c-0.405549,-0.405549 -0.493861,-1.0203 -0.239214,-1.53388c0.150902,-0.304376 0.282941,-0.619898 0.393545,-0.944851c0.18434,-0.538445 0.680773,-0.906268 1.25009,-0.906268h0.244358c0.491288,0 0.88912,-0.397832 0.88912,-0.888263v0Zm-8.68543,4.22439c-3.7271,0.825673 -6.97492,-2.42129 -6.14839,-6.14839c0.416695,-1.87856 1.93257,-3.39358 3.81027,-3.81027c3.7271,-0.825673 6.97406,2.42129 6.14839,6.14839c-0.416695,1.8777 -1.93172,3.39358 -3.81027,3.81027v0Z" transform="translate(560, 1)"></path></g></g></g></svg>